<?xml version="1.0" encoding="UTF-8" standalone="no"?><svg xmlns="http://www.w3.org/2000/svg" xmlns:xlink="http://www.w3.org/1999/xlink" xml:space="preserve" viewBox="0 0 173.28444 145.02274"><defs><linearGradient id="g"><stop offset="0" stop-color="#00a1ff"/><stop offset="1" stop-color="#00a1ff" stop-opacity="0"/></linearGradient><linearGradient id="f"><stop offset="0" stop-color="#a822f7" stop-opacity=".95255637"/><stop offset="1" stop-color="#22f7e0"/></linearGradient><linearGradient id="e"><stop offset="0" stop-color="#ff8deb"/><stop offset="1" stop-color="#ffed8d"/></linearGradient><linearGradient id="d"><stop offset="0" stop-color="#58e0f1" stop-opacity=".87680477"/><stop offset="1" stop-color="#ee34ea" stop-opacity=".95492977"/></linearGradient><linearGradient id="c"><stop offset="0" stop-color="#2f3aed" stop-opacity=".81232697"/><stop offset="1" stop-color="#ee34df" stop-opacity=".84132713"/></linearGradient><linearGradient id="b"><stop offset="0" stop-color="#e3ff40" stop-opacity=".92156863"/><stop offset="1" stop-color="#00bf56" stop-opacity=".71764708"/></linearGradient><linearGradient id="a"><stop offset="0" stop-color="#e3ff40" stop-opacity=".92197388"/><stop offset="1" stop-color="#00bf56" stop-opacity=".7175386"/></linearGradient><linearGradient xlink:href="#a" id="k" x1="101.6705" x2="441.63293" y1="94.101662" y2="160.81552" gradientTransform="matrix(.33845 0 0 .2966 19.863546 78.452049)" gradientUnits="userSpaceOnUse" spreadMethod="pad"/><linearGradient xlink:href="#b" id="j" x1="99.047081" x2="401.88571" y1="401.19754" y2="454.8248" gradientTransform="matrix(.33845 0 0 .2966 19.863546 78.452049)" gradientUnits="userSpaceOnUse"/><linearGradient xlink:href="#c" id="i" x1="34.787014" x2="476.16089" y1="255.0378" y2="255.49812" gradientTransform="matrix(.33845 0 0 .2966 19.863546 78.452049)" gradientUnits="userSpaceOnUse"/><linearGradient xlink:href="#d" id="l" x1="258.92551" x2="257.46219" y1="263.97568" y2="333.87753" gradientTransform="matrix(.33845 0 0 .2966 19.863546 78.452049)" gradientUnits="userSpaceOnUse"/><linearGradient xlink:href="#e" id="m" x1="259.69724" x2="331.81503" y1="336.40222" y2="391.29898" gradientTransform="matrix(.33845 0 0 .2966 19.863546 78.452049)" gradientUnits="userSpaceOnUse"/><linearGradient xlink:href="#f" id="h" x1="10.478" x2="501.52301" y1="353.30151" y2="353.30151" gradientTransform="matrix(.33845 0 0 .2966 19.863546 78.452049)" gradientUnits="userSpaceOnUse"/><radialGradient xlink:href="#g" id="p" cx="69.507004" cy="153.2365" r="10.448" fx="69.507004" fy="153.2365" gradientTransform="matrix(.33845 0 0 .30583 19.863546 77.036119)" gradientUnits="userSpaceOnUse"/><radialGradient xlink:href="#g" id="n" cx="131.672" cy="172.0425" r="10.448" fx="131.672" fy="172.0425" gradientTransform="matrix(.33845 0 0 .30583 19.863546 76.862348)" gradientUnits="userSpaceOnUse"/><radialGradient xlink:href="#g" id="u" cx="161.448" cy="94.697502" r="10.448" fx="161.448" fy="94.697502" gradientTransform="matrix(.33845 0 0 .30583 19.863546 77.577029)" gradientUnits="userSpaceOnUse"/><radialGradient xlink:href="#g" id="o" cx="193.836" cy="153.2365" r="10.448" fx="193.836" fy="153.2365" gradientTransform="matrix(.33845 0 0 .30583 19.863546 77.036119)" gradientUnits="userSpaceOnUse"/><radialGradient xlink:href="#g" id="v" cx="223.612" cy="113.5035" r="10.448" fx="223.612" fy="113.5035" gradientTransform="matrix(.33845 0 0 .30583 19.863546 77.403258)" gradientUnits="userSpaceOnUse"/><radialGradient xlink:href="#g" id="q" cx="256" cy="172.0425" r="10.448" fx="256" fy="172.0425" gradientTransform="matrix(.33845 0 0 .30583 19.863546 76.862348)" gradientUnits="userSpaceOnUse"/><radialGradient xlink:href="#g" id="w" cx="285.776" cy="94.697502" r="10.448" fx="285.776" fy="94.697502" gradientTransform="matrix(.33845 0 0 .30583 19.863546 77.577029)" gradientUnits="userSpaceOnUse"/><radialGradient xlink:href="#g" id="x" cx="347.94" cy="113.5035" r="10.448" fx="347.94" fy="113.5035" gradientTransform="matrix(.33845 0 0 .30583 19.863546 77.403258)" gradientUnits="userSpaceOnUse"/><radialGradient xlink:href="#g" id="r" cx="318.164" cy="153.2365" r="10.448" fx="318.164" fy="153.2365" gradientTransform="matrix(.33845 0 0 .30583 19.863546 77.036119)" gradientUnits="userSpaceOnUse"/><radialGradient xlink:href="#g" id="s" cx="380.328" cy="172.0425" r="10.448" fx="380.328" fy="172.0425" gradientTransform="matrix(.33845 0 0 .30583 19.863546 76.862348)" gradientUnits="userSpaceOnUse"/><radialGradient xlink:href="#g" id="t" cx="442.49301" cy="153.2365" r="10.448" fx="442.49301" fy="153.2365" gradientTransform="matrix(.33845 0 0 .30583 19.863546 77.036119)" gradientUnits="userSpaceOnUse"/></defs><path fill="url(#h)" d="M185.4328 174.74949c2.5397 1.7597 4.16932 4.48391 4.16932 7.54149 0 5.30666-4.90916 9.60845-10.9643 9.60845H34.374088c-6.05548 0-10.964305-4.30209-10.964305-9.60845 0-3.15842 1.738937-5.96093 4.423831-7.71232z" transform="translate(-19.863541 -81.869425)"/><path fill="url(#i)" d="M181.11557 146.94353c4.68715 0 8.48655 3.32957 8.48655 7.43709 0 4.10724-3.7994 7.43709-8.48655 7.43709H31.895985c-4.687143 0-8.48654-3.32955-8.48654-7.43709 0-4.10752 3.799397-7.43709 8.48654-7.43709h18.740783z" transform="translate(-19.863541 -81.869425)"/><path fill="url(#j)" d="M186.06604 190.79046v7.90186c0 13.8622-12.8234 25.09982-28.6417 25.09982H55.587221c-15.818301 0-28.64169-11.23762-28.64169-25.09982v-7.90186z" transform="translate(-19.863541 -81.869425)"/><path fill="url(#k)" d="M133.55609 146.94353h-96.0023c-7.811339 0-14.144007-5.54955-14.144007-12.39494 0-27.38242 25.329995-49.579788 56.576027-49.579788h53.03994c31.24637 0 56.57604 22.197658 56.57604 49.579788 0 6.84539-6.33268 12.39494-14.14402 12.39494h-17.32641z" transform="translate(-19.863541 -81.869425)"/><path fill="url(#l)" d="M25.012327 160.44746c-4.502013 6.93316 1.755182 13.00503 3.25856 13.91439 4.201133 2.54061 9.761128 2.52875 13.955831-.0202 4.227531-2.5507 9.813248-2.5507 14.040441.0003l.0023.001c4.227532 2.551 9.812911 2.5513 14.040442.0003 4.227532-2.55071 9.813249-2.55071 14.040447.0003 4.2282 2.55159 9.81528 2.54891 14.04078-.005l.002-.001c2.426322-1.46399 5.299392-2.08268 8.106802-1.86617v.0006c.001-.0003.004-.0003.005-.0003s.004.0003.005.0003v-.0006c2.80707-.21651 5.68047.40218 8.10679 1.86617l.003.001c4.2255 2.55485 9.81257 2.55724 14.04078.005 4.22753-2.55101 9.81292-2.55131 14.04044-.0003 4.22754 2.551 9.81326 2.5507 14.04045-.0003l.003-.001c4.22753-2.551 9.8129-2.5513 14.04044-.0003 4.19471 2.54892 9.75436 2.56079 13.95583.0202 1.50304-.90877 7.76058-6.98093 3.25857-13.91439z" transform="translate(-19.863541 -81.869425)"/><path fill="url(#m)" d="m179.67447 176.26034-12.8799-1.51085-84.312719-1.20683 50.275509 32.27681z" transform="translate(-19.863541 -81.869425)"/><path fill="#2f0351" d="M169.915459 92.290625c2.70182-3.26226 5.06247-8.67543 1.73961-14.5086 1.02753-1.55149 1.61913-3.35093 1.61913-5.2708 0-3.64309-2.12172-6.85968-5.33831-8.75256 3.29037-2.81528 5.33831-6.74073 5.33831-11.07963C173.274199 23.631885 146.307839 0 113.162129 0H60.122226C26.976518 0 .010156 23.631885.010156 52.679035c0 4.3386 2.047937 8.26405 5.338308 11.07963-3.216589 1.89288-5.338308 5.10947-5.338308 8.75256 0 1.91927.591604 3.71873 1.619125 5.2708-3.323877 5.83553-.960509 11.25049 1.742659 14.51216-2.142024 2.26303-3.361784 5.14357-3.361784 8.12821 0 3.17655 1.340246 6.08231 3.546576 8.31241-.0044.0623-.01049.12392-.01049.18715v7.90191c0 15.54905 14.434722 28.19887 32.177753 28.19887h101.837054c17.74303 0 32.17774-12.64982 32.17774-28.19887v-7.90191c0-.0632-.006-.12483-.0104-.18715 2.20634-2.2301 3.54658-5.13586 3.54658-8.31241-.00067-3.01875-1.20216-5.87022-3.35942-8.13177zm-93.388422 4.47148c1.39677-.40367 2.74108-.97817 3.986222-1.72856.007-.004.0142-.008.0217-.0131 1.68546-1.01673 3.74422-1.49009 5.79046-1.33083.17262.0136.34623.0154.51918.006h.001c.0372-.001.0748-.004.11241-.006 2.04792-.1575 4.10601.31528 5.79113 1.33141.006.004.0136.008.0203.0117 5.3955 3.25097 12.63961 3.2498 18.03376-.005 2.9993-1.80983 7.02987-1.81043 10.02985 0 5.39888 3.25722 12.65245 3.25722 18.05136-.0006.005-.003.009-.006.0142-.009 2.9983-1.80241 7.02209-1.80064 10.00819.00089.68196.41434 1.39372.77589 2.12781 1.08554l-38.12086 24.01717zm-66.088006-6.8048c-.05212-.0347-4.265434-3.4067-3.147548-7.76548 1.455318.54929 3.05786.85538 4.740613.85538h149.219483c1.68275 0 3.2853-.30579 4.74095-.85538 1.11823 4.35878-3.09271 7.729-3.12385 7.75065-2.96986 1.79559-6.96183 1.78936-9.9422-.0223-5.39888-3.25722-12.65212-3.25693-18.05101.00029-.004.003-.008.005-.0117.006-2.99829 1.80479-7.02343 1.8027-10.02071-.005-5.39922-3.25722-12.65314-3.25722-18.05101.00028-3.00033 1.81044-7.02987 1.80865-10.02748-.004-.008-.005-.0149-.009-.0227-.0136-2.94855-1.77394-6.51813-2.62605-10.09552-2.41073-3.575-.21651-7.152712.63502-10.102942 2.40984-.008.005-.0162.009-.024.0145-2.99762 1.81249-7.0275 1.81398-10.02748.004-5.398216-3.25751-12.652129-3.25781-18.05102-.00029-2.995924 1.80776-7.0214 1.81013-10.02037.005-.0044-.003-.0078-.005-.01217-.008-5.398889-3.25752-12.652125-3.25752-18.060493.005-2.971555 1.80539-6.963526 1.81221-9.909022.0311zm151.121898 7.14826c.99231-.20376 1.96501-.49265 2.90419-.86547 1.11518 1.16177 1.73691 2.62873 1.73691 4.18201 0 3.5897-3.33234 6.50998-7.42854 6.50998h-12.80985zm-47.86845-28.93236c1.95249 0 3.53608-1.38718 3.53608-3.09884 0-1.71165-1.58325-3.09883-3.53608-3.09883H17.690236c-5.849361 0-10.607912-4.17043-10.607912-9.2962 0-25.62977 23.793768-46.481366 53.039902-46.481366h53.039903c29.24613 0 53.0399 20.851596 53.0399 46.481366 0 5.12607-4.75889 9.2962-10.60791 9.2962h-17.3264c-1.9525 0-3.53609 1.38718-3.53609 3.09883 0 1.71166 1.58325 3.09884 3.53609 3.09884h22.98386c2.72991 0 4.95045 1.94598 4.95045 4.33832 0 2.39234-2.22054 4.3383-4.95045 4.3383H12.032434c-2.729905 0-4.950449-1.94596-4.950449-4.3383 0-2.39234 2.220544-4.33832 4.950449-4.33832zm23.86823 70.65187H35.723654c-13.843118 0-25.105585-9.86983-25.105585-22.00121v-4.16302c1.239728.30342 2.54376.46891 3.892468.46891h35.71079c1.952495 0 3.536083-1.38718 3.536083-3.09883 0-1.71136-1.583588-3.09884-3.536083-3.09884h-35.71079c-4.096213 0-7.428552-2.92028-7.428552-6.50998 0-1.56158.617326-3.02498 1.732167-4.18379 2.073658.82425 4.312479 1.23829 6.552992 1.23829 3.156008 0 6.312017-.81772 9.000632-2.45166 2.995247-1.80746 7.01937-1.80983 10.016986-.008.0054.003.0098.006.01489.009 5.399229 3.25781 12.652804 3.25781 18.051356.00059 2.368107-1.4287 5.37723-1.72441 8.015755-.8975.02133.0142.03994.0299.0616.0436l19.872536 12.75838h-6.724922c-1.95249 0-3.53608 1.38718-3.53608 3.09884 0 1.71165 1.58325 3.09884 3.53608 3.09884h15.807792c.17499 0 .34589-.0149.51377-.0363l20.80596 13.3575c.62207.39952 1.35582.59913 2.08991.59913.7236 0 1.44719-.19398 2.06384-.58252l21.1786-13.34327c.0426.001.0846.005.12755.005h22.50969c1.34837 0 2.65274-.16549 3.89247-.46891v4.16302c.00069 12.13167-11.26178 22.00151-25.1049 22.00151z"/><path fill="url(#n)" d="M64.427437 126.28342c-1.952497 0-3.536086 1.38717-3.536086 3.09881v.19308c0 1.71134 1.583589 3.09881 3.536086 3.09881 1.952496 0 3.536087-1.38717 3.536087-3.09881v-.19308c-.000339-1.71136-1.583591-3.09881-3.536087-3.09881z" style="mix-blend-mode:darken" transform="translate(-19.863541 -81.869425)"/><path fill="url(#o)" d="M85.466608 120.70567c-1.952496 0-3.536085 1.38717-3.536085 3.09881v.19308c0 1.71136 1.583251 3.09881 3.536085 3.09881 1.9525 0 3.53609-1.38717 3.53609-3.09881v-.19308c0-1.71134-1.58359-3.09881-3.53609-3.09881z" style="mix-blend-mode:darken" transform="translate(-19.863541 -81.869425)"/><path fill="url(#p)" d="M43.387927 120.70567c-1.952497 0-3.536086 1.38717-3.536086 3.09881v.19308c0 1.71136 1.583589 3.09881 3.536086 3.09881 1.952496 0 3.536086-1.38717 3.536086-3.09881v-.19308c0-1.71134-1.583252-3.09881-3.536086-3.09881z" style="mix-blend-mode:darken" transform="translate(-19.863541 -81.869425)"/><path fill="url(#q)" d="M106.50579 126.28342c-1.9525 0-3.53609 1.38717-3.53609 3.09881v.19308c0 1.71134 1.58325 3.09881 3.53609 3.09881 1.95282 0 3.53607-1.38717 3.53607-3.09881v-.19308c0-1.71136-1.58358-3.09881-3.53607-3.09881z" style="mix-blend-mode:darken" transform="translate(-19.863541 -81.869425)"/><path fill="url(#r)" d="M127.54496 120.70567c-1.95251 0-3.53609 1.38717-3.53609 3.09881v.19308c0 1.71136 1.58325 3.09881 3.53609 3.09881 1.95284 0 3.53608-1.38717 3.53608-3.09881v-.19308c0-1.71134-1.58324-3.09881-3.53608-3.09881z" style="mix-blend-mode:darken" transform="translate(-19.863541 -81.869425)"/><path fill="url(#s)" d="M148.58412 132.67412c1.95251 0 3.53609-1.38717 3.53609-3.09881v-.19308c0-1.71136-1.58325-3.09881-3.53609-3.09881-1.95248 0-3.53608 1.38717-3.53608 3.09881v.19308c.00033 1.71134 1.58325 3.09881 3.53608 3.09881z" style="mix-blend-mode:darken" transform="translate(-19.863541 -81.869425)"/><path fill="url(#t)" d="M169.62364 127.09637c1.95249 0 3.53609-1.38717 3.53609-3.09881v-.19308c0-1.71134-1.58326-3.09881-3.53609-3.09881-1.95284 0-3.53608 1.38717-3.53608 3.09881v.19308c0 1.71136 1.58291 3.09881 3.53608 3.09881z" style="mix-blend-mode:darken" transform="translate(-19.863541 -81.869425)"/><path fill="url(#u)" d="M74.505013 103.34338c-1.952497 0-3.536088 1.38717-3.536088 3.09881v.19307c0 1.71135 1.583591 3.09882 3.536088 3.09882 1.952495 0 3.536086-1.38717 3.536086-3.09882v-.19307c0-1.71135-1.583591-3.09881-3.536086-3.09881z" style="mix-blend-mode:darken" transform="translate(-19.863541 -81.869425)"/><path fill="url(#v)" d="M95.544188 108.92111c-1.9525 0-3.53609 1.38717-3.53609 3.09881v.19309c0 1.71135 1.58359 3.09881 3.53609 3.09881 1.95249 0 3.53608-1.38717 3.53608-3.09881v-.19309c0-1.71134-1.58359-3.09881-3.53608-3.09881z" style="mix-blend-mode:darken" transform="translate(-19.863541 -81.869425)"/><path fill="url(#w)" d="M116.58336 103.34338c-1.9525 0-3.53609 1.38717-3.53609 3.09881v.19307c0 1.71135 1.58359 3.09882 3.53609 3.09882 1.9525 0 3.53608-1.38717 3.53608-3.09882v-.19307c0-1.71135-1.58358-3.09881-3.53608-3.09881z" style="mix-blend-mode:darken" transform="translate(-19.863541 -81.869425)"/><path fill="url(#x)" d="M141.15861 112.21301v-.19309c0-1.71134-1.58358-3.09881-3.53609-3.09881-1.95248 0-3.53608 1.38717-3.53608 3.09881v.19309c0 1.71135 1.58326 3.09881 3.53608 3.09881 1.95284 0 3.53609-1.38746 3.53609-3.09881z" style="mix-blend-mode:darken" transform="translate(-19.863541 -81.869425)"/></svg>
